<svg width="266" height="60" viewBox="0 0 266 60" fill="none" xmlns="http://www.w3.org/2000/svg">
<ellipse cx="27.47" cy="26.3909" rx="8.87434" ry="8.47096" fill="#35D7AE"/>
<path d="M30.3682 8.95337C34.148 8.95339 37.4752 9.66005 40.3379 11.0872C43.1985 12.5134 45.4328 14.5243 47.0283 17.1174C48.6263 19.7148 49.4189 22.7415 49.4189 26.1829L49.4092 26.8293C49.3132 30.0332 48.4979 32.8463 46.9512 35.2542C45.3204 37.818 43.0264 39.7884 40.084 41.1663C37.1577 42.5441 33.7515 43.2278 29.877 43.2278H22.7236V51.175C14.3731 48.0671 8.40137 40.0753 8.2793 30.6711C8.47975 18.6424 18.2917 8.95339 30.3682 8.95337ZM22.7236 32.3801H27.1289C28.6891 32.3801 29.9936 32.1238 31.0557 31.6282C32.1354 31.1165 32.9476 30.4003 33.5078 29.4827L33.5107 29.4788L33.6152 29.304C34.1216 28.4229 34.3808 27.3864 34.3809 26.1829C34.3808 24.8824 34.0851 23.7997 33.5137 22.9163L33.5098 22.9104C32.9511 22.0093 32.1408 21.3158 31.0625 20.8342L31.0557 20.8313C29.9935 20.3356 28.6891 20.0793 27.1289 20.0793H22.7236V32.3801Z" fill="#00054D"/>
<path d="M69.4663 45.5642V14.8442H82.7263C85.0063 14.8442 87.0013 15.2942 88.7113 16.1942C90.4213 17.0942 91.7513 18.3592 92.7013 19.9892C93.6513 21.6192 94.1263 23.5242 94.1263 25.7042C94.1263 27.9042 93.6363 29.8092 92.6563 31.4192C91.6863 33.0292 90.3213 34.2692 88.5613 35.1392C86.8113 36.0092 84.7663 36.4442 82.4263 36.4442H74.5063V29.9642H80.7463C81.7263 29.9642 82.5613 29.7942 83.2513 29.4542C83.9513 29.1042 84.4863 28.6092 84.8563 27.9692C85.2363 27.3292 85.4263 26.5742 85.4263 25.7042C85.4263 24.8242 85.2363 24.0742 84.8563 23.4542C84.4863 22.8242 83.9513 22.3442 83.2513 22.0142C82.5613 21.6742 81.7263 21.5042 80.7463 21.5042H77.8063V45.5642H69.4663ZM97.1863 45.5642V14.8442H105.526V38.8442H117.946V45.5642H97.1863ZM121.318 45.5642V14.8442H143.458V21.5642H129.658V26.8442H142.318V33.5642H129.658V38.8442H143.398V45.5642H121.318ZM156.534 14.8442L161.574 23.7842H161.814L166.914 14.8442H176.214L167.034 30.2042L176.574 45.5642H167.034L161.814 36.4442H161.574L156.354 45.5642H146.874L156.294 30.2042L147.174 14.8442H156.534ZM188.15 14.8442V45.5642H179.81V14.8442H188.15ZM192.103 45.5642V14.8442H200.443V38.8442H212.863V45.5642H192.103ZM224.574 14.8442V45.5642H216.234V14.8442H224.574ZM245.086 24.4442C245.006 23.4442 244.631 22.6642 243.961 22.1042C243.301 21.5442 242.296 21.2642 240.946 21.2642C240.086 21.2642 239.381 21.3692 238.831 21.5792C238.291 21.7792 237.891 22.0542 237.631 22.4042C237.371 22.7542 237.236 23.1542 237.226 23.6042C237.206 23.9742 237.271 24.3092 237.421 24.6092C237.581 24.8992 237.831 25.1642 238.171 25.4042C238.511 25.6342 238.946 25.8442 239.476 26.0342C240.006 26.2242 240.636 26.3942 241.366 26.5442L243.886 27.0842C245.586 27.4442 247.041 27.9192 248.251 28.5092C249.461 29.0992 250.451 29.7942 251.221 30.5942C251.991 31.3842 252.556 32.2742 252.916 33.2642C253.286 34.2542 253.476 35.3342 253.486 36.5042C253.476 38.5242 252.971 40.2342 251.971 41.6342C250.971 43.0342 249.541 44.0992 247.681 44.8292C245.831 45.5592 243.606 45.9242 241.006 45.9242C238.336 45.9242 236.006 45.5292 234.016 44.7392C232.036 43.9492 230.496 42.7342 229.396 41.0942C228.306 39.4442 227.756 37.3342 227.746 34.7642H235.666C235.716 35.7042 235.951 36.4942 236.371 37.1342C236.791 37.7742 237.381 38.2592 238.141 38.5892C238.911 38.9192 239.826 39.0842 240.886 39.0842C241.776 39.0842 242.521 38.9742 243.121 38.7542C243.721 38.5342 244.176 38.2292 244.486 37.8392C244.796 37.4492 244.956 37.0042 244.966 36.5042C244.956 36.0342 244.801 35.6242 244.501 35.2742C244.211 34.9142 243.731 34.5942 243.061 34.3142C242.391 34.0242 241.486 33.7542 240.346 33.5042L237.286 32.8442C234.566 32.2542 232.421 31.2692 230.851 29.8892C229.291 28.4992 228.516 26.6042 228.526 24.2042C228.516 22.2542 229.036 20.5492 230.086 19.0892C231.146 17.6192 232.611 16.4742 234.481 15.6542C236.361 14.8342 238.516 14.4242 240.946 14.4242C243.426 14.4242 245.571 14.8392 247.381 15.6692C249.191 16.4992 250.586 17.6692 251.566 19.1792C252.556 20.6792 253.056 22.4342 253.066 24.4442H245.086Z" fill="#00054D"/>
</svg>
